<?xml version="1.0" encoding="utf-8"?>
<!-- Generator: Adobe Illustrator 26.5.0, SVG Export Plug-In . SVG Version: 6.00 Build 0)  -->
<svg version="1.1" id="Layer_1" xmlns="http://www.w3.org/2000/svg" xmlns:xlink="http://www.w3.org/1999/xlink" x="0px" y="0px"
	 width="42px" height="31.612px" viewBox="0 0 42 31.612" style="enable-background:new 0 0 42 31.612;" xml:space="preserve">
<style type="text/css">
	.st0{fill:#FFFFFF;}
</style>
<path class="st0" d="M41.424,27.876c-0.03-0.038-0.061-0.075-0.094-0.111c-0.03-0.038-0.06-0.075-0.093-0.111
	c-0.03-0.037-0.059-0.075-0.091-0.11c-0.023-0.029-0.047-0.058-0.071-0.086c-0.029-0.038-0.061-0.075-0.093-0.111
	c-0.029-0.038-0.06-0.074-0.091-0.11c-0.028-0.037-0.058-0.074-0.089-0.109c-0.028-0.037-0.056-0.074-0.087-0.108
	c-0.027-0.036-0.054-0.071-0.083-0.104c-0.028-0.038-0.058-0.073-0.088-0.108c-0.027-0.037-0.056-0.073-0.086-0.107
	c-0.026-0.037-0.054-0.072-0.083-0.106c-0.027-0.038-0.055-0.075-0.084-0.11c-0.028-0.039-0.058-0.077-0.089-0.114
	c-0.025-0.036-0.052-0.07-0.08-0.104c-0.024-0.035-0.049-0.07-0.076-0.103c-0.029-0.042-0.059-0.083-0.091-0.122
	c-0.025-0.037-0.053-0.073-0.081-0.108c-0.023-0.034-0.046-0.067-0.071-0.099c-0.027-0.042-0.056-0.083-0.087-0.121
	c-0.026-0.04-0.053-0.078-0.081-0.114c-0.021-0.032-0.042-0.064-0.065-0.094c-0.027-0.045-0.057-0.088-0.088-0.129
	c-0.022-0.037-0.046-0.072-0.071-0.106c-0.022-0.038-0.046-0.074-0.071-0.109c-0.003-0.005-0.006-0.011-0.009-0.016
	c-0.023-0.039-0.047-0.075-0.073-0.111c-0.01-0.017-0.019-0.035-0.03-0.052c-0.009-0.014-0.019-0.027-0.029-0.041
	c-0.022-0.041-0.047-0.082-0.074-0.122c-0.002-0.003-0.004-0.006-0.007-0.008c-0.018-0.033-0.037-0.065-0.058-0.097
	c-0.022-0.045-0.049-0.088-0.077-0.131c-0.018-0.035-0.037-0.069-0.058-0.103c-0.021-0.045-0.046-0.088-0.072-0.131
	c-0.017-0.036-0.036-0.072-0.057-0.107c-0.02-0.045-0.043-0.088-0.068-0.131c-0.017-0.037-0.035-0.074-0.056-0.11
	c-0.019-0.045-0.04-0.089-0.064-0.131c-0.016-0.038-0.034-0.075-0.053-0.112c-0.017-0.044-0.035-0.086-0.057-0.128
	c-0.015-0.04-0.033-0.079-0.052-0.117c-0.014-0.039-0.03-0.077-0.048-0.115c-0.015-0.046-0.034-0.09-0.055-0.133
	c-0.013-0.039-0.028-0.078-0.045-0.115c-0.014-0.046-0.031-0.092-0.051-0.136c-0.012-0.039-0.026-0.077-0.042-0.115
	c-0.014-0.047-0.029-0.094-0.048-0.139c-0.011-0.039-0.024-0.077-0.038-0.114c-0.013-0.048-0.027-0.096-0.045-0.142
	c-0.01-0.038-0.022-0.076-0.035-0.112c-0.012-0.05-0.026-0.098-0.043-0.145c-0.009-0.037-0.019-0.073-0.031-0.109
	c-0.011-0.05-0.024-0.1-0.041-0.148c-0.008-0.039-0.019-0.077-0.03-0.115c-0.009-0.047-0.021-0.093-0.035-0.139
	c-0.009-0.048-0.021-0.095-0.035-0.141c-0.007-0.038-0.016-0.075-0.026-0.112c-0.009-0.051-0.02-0.1-0.034-0.149
	c-0.008-0.045-0.019-0.089-0.03-0.133c-0.007-0.041-0.015-0.082-0.026-0.121c-0.008-0.048-0.017-0.095-0.028-0.141
	c-0.001-0.004-0.001-0.008-0.001-0.012c-0.007-0.043-0.017-0.084-0.027-0.125c-0.003-0.018-0.004-0.036-0.007-0.053
	c-0.005-0.025-0.012-0.049-0.018-0.074c-0.005-0.034-0.009-0.069-0.017-0.104c-0.002-0.009-0.005-0.019-0.007-0.028
	c-0.007-0.046-0.015-0.093-0.025-0.139c-0.006-0.044-0.015-0.088-0.025-0.132c-0.006-0.045-0.014-0.09-0.024-0.135
	c-0.006-0.046-0.013-0.092-0.023-0.138c-0.006-0.047-0.012-0.093-0.022-0.14c-0.005-0.041-0.013-0.082-0.021-0.123
	c-0.006-0.046-0.014-0.093-0.023-0.139c-0.005-0.047-0.013-0.094-0.022-0.141c-0.006-0.048-0.012-0.095-0.022-0.142
	c-0.006-0.048-0.012-0.096-0.021-0.144c-0.004-0.035-0.009-0.07-0.015-0.105c-0.005-0.047-0.013-0.095-0.021-0.142
	c-0.005-0.048-0.013-0.096-0.021-0.143c-0.005-0.049-0.012-0.097-0.02-0.145c-0.005-0.049-0.011-0.097-0.02-0.146
	c-0.005-0.049-0.011-0.098-0.02-0.147c-0.006-0.049-0.011-0.099-0.019-0.148c-0.003-0.025-0.006-0.051-0.01-0.076
	c-0.004-0.049-0.012-0.097-0.019-0.145c-0.004-0.049-0.012-0.097-0.019-0.146c-0.004-0.049-0.011-0.098-0.019-0.147
	c-0.005-0.049-0.011-0.098-0.019-0.148c-0.005-0.049-0.011-0.099-0.018-0.148c-0.005-0.05-0.01-0.099-0.018-0.149
	c-0.005-0.05-0.01-0.1-0.018-0.15c-0.005-0.05-0.01-0.1-0.018-0.15c-0.001-0.012-0.003-0.024-0.004-0.036
	c-0.001-0.013-0.003-0.025-0.004-0.038c-0.004-0.026-0.005-0.051-0.009-0.077c-0.001-0.011-0.003-0.021-0.004-0.032
	c-0.004-0.049-0.011-0.098-0.017-0.147c-0.004-0.049-0.011-0.098-0.017-0.148c-0.004-0.049-0.011-0.099-0.017-0.148
	c-0.004-0.05-0.01-0.099-0.017-0.149c-0.004-0.05-0.01-0.1-0.017-0.149c-0.004-0.05-0.01-0.1-0.017-0.15
	c-0.005-0.05-0.01-0.1-0.017-0.15c-0.005-0.05-0.01-0.1-0.017-0.15c-0.005-0.05-0.009-0.101-0.017-0.151
	c-0.005-0.05-0.009-0.101-0.016-0.151c-0.005-0.051-0.009-0.101-0.016-0.151c-0.005-0.049-0.008-0.099-0.016-0.148
	c-0.002-0.024-0.006-0.047-0.008-0.071c-0.002-0.019-0.003-0.038-0.006-0.057c-0.003-0.048-0.011-0.096-0.016-0.145
	c-0.003-0.049-0.01-0.099-0.015-0.148c-0.003-0.05-0.01-0.099-0.015-0.148c-0.004-0.05-0.01-0.099-0.015-0.149
	c-0.004-0.05-0.01-0.099-0.015-0.149c-0.003-0.043-0.008-0.085-0.012-0.128c-0.004-0.061-0.01-0.122-0.017-0.183
	c-0.004-0.047-0.009-0.095-0.015-0.142c-0.004-0.047-0.009-0.095-0.015-0.142c-0.004-0.048-0.009-0.095-0.014-0.143
	c-0.004-0.048-0.009-0.095-0.014-0.143c-0.004-0.048-0.008-0.096-0.014-0.143c-0.004-0.048-0.008-0.096-0.014-0.144
	c-0.004-0.048-0.008-0.096-0.014-0.144c-0.003-0.032-0.006-0.064-0.01-0.097c-0.004-0.048-0.009-0.095-0.014-0.142
	c-0.004-0.048-0.009-0.095-0.014-0.142c-0.004-0.048-0.009-0.095-0.014-0.143c-0.004-0.048-0.009-0.096-0.014-0.144
	c-0.004-0.048-0.009-0.096-0.014-0.143c-0.004-0.048-0.009-0.096-0.014-0.144c-0.004-0.048-0.009-0.096-0.014-0.144
	c-0.004-0.048-0.008-0.096-0.014-0.144c-0.004-0.048-0.008-0.096-0.014-0.145c-0.004-0.048-0.008-0.097-0.014-0.145
	c-0.004-0.048-0.008-0.097-0.014-0.145c-0.004-0.048-0.008-0.097-0.014-0.145c-0.004-0.049-0.008-0.097-0.014-0.146
	c-0.004-0.049-0.008-0.097-0.014-0.145c-0.002-0.02-0.004-0.041-0.006-0.061c-0.003-0.048-0.009-0.096-0.014-0.143
	c-0.004-0.048-0.009-0.096-0.014-0.144c-0.004-0.048-0.009-0.096-0.014-0.144c-0.004-0.048-0.009-0.096-0.014-0.144
	c-0.004-0.048-0.009-0.096-0.014-0.144c-0.004-0.048-0.009-0.096-0.014-0.145c-0.004-0.048-0.009-0.096-0.014-0.144
	c-0.004-0.048-0.008-0.097-0.014-0.145c-0.004-0.048-0.008-0.097-0.014-0.145c-0.004-0.049-0.008-0.097-0.014-0.145
	c-0.099-1.23-0.618-2.432-1.558-3.373c-2.103-2.103-5.513-2.103-7.616,0c-0.908,0.908-1.423,2.059-1.547,3.243
	c-0.007,0.057-0.015,0.114-0.02,0.171c-0.005,0.039-0.01,0.078-0.014,0.117c-0.005,0.039-0.01,0.078-0.014,0.117
	c-0.005,0.039-0.01,0.078-0.014,0.117c-0.005,0.039-0.01,0.078-0.014,0.117c-0.005,0.039-0.01,0.078-0.014,0.117
	c-0.005,0.039-0.01,0.078-0.014,0.118c-0.005,0.039-0.01,0.078-0.014,0.118c-0.005,0.039-0.01,0.078-0.014,0.118
	c-0.005,0.039-0.01,0.078-0.014,0.118c-0.006,0.039-0.01,0.079-0.015,0.118c-0.005,0.039-0.01,0.079-0.015,0.118
	c-0.006,0.039-0.01,0.079-0.015,0.118c-0.009,0.063-0.017,0.126-0.024,0.19c-0.007,0.049-0.014,0.098-0.018,0.148
	c-0.005,0.039-0.011,0.078-0.015,0.116c-0.005,0.039-0.011,0.078-0.015,0.116c-0.005,0.039-0.011,0.078-0.015,0.117
	c-0.005,0.039-0.011,0.078-0.015,0.117c-0.006,0.039-0.011,0.078-0.015,0.117c-0.006,0.039-0.011,0.078-0.015,0.117
	c-0.006,0.039-0.011,0.078-0.015,0.117c-0.006,0.039-0.011,0.078-0.015,0.118c-0.006,0.039-0.011,0.078-0.016,0.118
	c-0.006,0.039-0.011,0.078-0.016,0.118c-0.01,0.064-0.019,0.129-0.026,0.194c-0.005,0.039-0.011,0.077-0.015,0.116
	c-0.006,0.039-0.011,0.077-0.016,0.116c-0.006,0.039-0.011,0.077-0.016,0.116c-0.006,0.039-0.011,0.078-0.016,0.117
	c-0.006,0.039-0.011,0.078-0.016,0.117c-0.006,0.039-0.011,0.078-0.017,0.117c-0.007,0.041-0.012,0.082-0.017,0.123
	c-0.004,0.023-0.006,0.046-0.009,0.068c-0.001,0.007-0.002,0.015-0.003,0.022c-0.007,0.037-0.011,0.074-0.016,0.112
	c-0.007,0.037-0.011,0.075-0.016,0.112c-0.007,0.037-0.011,0.075-0.016,0.112c-0.01,0.05-0.015,0.101-0.022,0.152
	c-0.013,0.068-0.022,0.137-0.031,0.205c-0.01,0.059-0.022,0.117-0.028,0.176c-0.005,0.036-0.013,0.072-0.017,0.108
	c-0.005,0.036-0.013,0.072-0.017,0.108c-0.006,0.036-0.013,0.072-0.017,0.108c-0.006,0.036-0.013,0.072-0.018,0.108
	c-0.006,0.036-0.013,0.072-0.018,0.109c-0.007,0.036-0.013,0.072-0.018,0.109c-0.007,0.036-0.013,0.072-0.019,0.109
	c-0.007,0.036-0.013,0.073-0.018,0.109c-0.008,0.036-0.013,0.073-0.019,0.109c-0.008,0.036-0.013,0.073-0.019,0.11
	c-0.011,0.05-0.018,0.101-0.026,0.152c-0.014,0.064-0.026,0.129-0.035,0.194c-0.008,0.042-0.018,0.084-0.024,0.126
	c-0.007,0.035-0.015,0.07-0.02,0.106c-0.007,0.035-0.015,0.071-0.021,0.106c-0.007,0.035-0.015,0.071-0.021,0.106
	c-0.008,0.035-0.015,0.071-0.021,0.107c-0.008,0.036-0.015,0.071-0.022,0.107c-0.009,0.035-0.015,0.071-0.022,0.107
	c-0.009,0.035-0.015,0.072-0.022,0.108c-0.015,0.056-0.026,0.114-0.037,0.172c-0.013,0.051-0.025,0.101-0.035,0.153
	c-0.008,0.035-0.017,0.069-0.024,0.104c-0.009,0.035-0.017,0.069-0.024,0.104c-0.009,0.035-0.018,0.069-0.025,0.104
	c-0.01,0.035-0.018,0.07-0.025,0.105c-0.01,0.035-0.018,0.07-0.026,0.105c-0.011,0.037-0.02,0.075-0.029,0.113
	c-0.018,0.058-0.033,0.117-0.047,0.176c-0.011,0.037-0.022,0.074-0.03,0.112c-0.01,0.034-0.02,0.068-0.029,0.102
	c-0.011,0.034-0.021,0.068-0.029,0.102c-0.011,0.034-0.021,0.068-0.03,0.102c-0.012,0.034-0.021,0.068-0.031,0.102
	c-0.017,0.047-0.031,0.095-0.045,0.143c-0.016,0.044-0.031,0.088-0.044,0.134c-0.012,0.033-0.023,0.066-0.033,0.1
	c-0.012,0.033-0.024,0.066-0.034,0.1c-0.013,0.033-0.024,0.066-0.036,0.1c-0.014,0.032-0.025,0.066-0.037,0.099
	c-0.022,0.049-0.041,0.101-0.058,0.152c-0.015,0.036-0.03,0.071-0.043,0.108c-0.014,0.032-0.027,0.064-0.039,0.097
	c-0.014,0.032-0.028,0.064-0.041,0.097c-0.015,0.031-0.029,0.064-0.042,0.096c-0.021,0.042-0.04,0.085-0.058,0.129
	c-0.02,0.039-0.039,0.079-0.056,0.12c-0.016,0.031-0.031,0.062-0.045,0.094c-0.016,0.031-0.032,0.062-0.046,0.093
	c-0.017,0.03-0.032,0.061-0.048,0.093c-0.023,0.038-0.043,0.079-0.063,0.119c-0.022,0.037-0.044,0.074-0.063,0.113
	c-0.001,0.003-0.002,0.006-0.004,0.009c-0.013,0.021-0.026,0.041-0.038,0.063c-0.005,0.009-0.008,0.018-0.013,0.027
	c-0.009,0.015-0.02,0.029-0.029,0.045c-0.009,0.015-0.015,0.03-0.023,0.045c-0.006,0.009-0.013,0.018-0.019,0.027
	c-0.013,0.021-0.023,0.042-0.035,0.062c-0.002,0.004-0.005,0.007-0.007,0.01c-0.022,0.033-0.042,0.068-0.061,0.102
	c-0.028,0.04-0.054,0.08-0.078,0.121c-0.02,0.029-0.039,0.058-0.057,0.088c-0.02,0.028-0.04,0.057-0.059,0.087
	c-0.021,0.028-0.04,0.057-0.059,0.086c-0.024,0.031-0.046,0.063-0.068,0.095c-0.034,0.042-0.066,0.086-0.095,0.131
	c-0.022,0.028-0.043,0.056-0.063,0.085c-0.022,0.028-0.044,0.055-0.064,0.084c-0.022,0.027-0.044,0.055-0.065,0.083
	c-0.023,0.027-0.044,0.054-0.065,0.082c-0.033,0.037-0.064,0.076-0.093,0.116c-0.031,0.035-0.061,0.07-0.089,0.107
	c-0.023,0.027-0.047,0.053-0.069,0.081c-0.024,0.027-0.047,0.053-0.069,0.081c-0.024,0.026-0.047,0.052-0.07,0.08
	c-0.024,0.025-0.047,0.052-0.07,0.079c-0.033,0.033-0.063,0.069-0.093,0.104c-0.038,0.039-0.075,0.078-0.11,0.119
	c-0.025,0.026-0.05,0.052-0.074,0.079c-0.025,0.026-0.05,0.051-0.074,0.078c-0.025,0.025-0.05,0.051-0.074,0.078
	c-0.026,0.025-0.05,0.051-0.074,0.077c-0.026,0.024-0.05,0.05-0.075,0.076c-0.029,0.027-0.055,0.055-0.082,0.083
	c-0.021-0.027-0.04-0.056-0.062-0.082c-0.058-0.088-0.121-0.172-0.189-0.252c-0.055-0.083-0.114-0.164-0.179-0.24
	c-0.048-0.073-0.099-0.142-0.153-0.209c-0.056-0.089-0.119-0.172-0.186-0.252c-0.056-0.088-0.116-0.172-0.181-0.251
	c-0.049-0.078-0.102-0.152-0.159-0.222c-0.052-0.087-0.112-0.168-0.175-0.245c-0.053-0.088-0.111-0.171-0.175-0.249
	c-0.048-0.081-0.101-0.158-0.159-0.23c-0.051-0.088-0.108-0.17-0.171-0.247c-0.049-0.087-0.103-0.169-0.163-0.245
	c-0.048-0.086-0.102-0.165-0.16-0.24c-0.011-0.022-0.021-0.043-0.034-0.064c-0.037-0.063-0.078-0.121-0.121-0.178
	c-0.026-0.049-0.053-0.097-0.084-0.145c-0.023-0.036-0.049-0.069-0.074-0.103c-0.038-0.075-0.08-0.149-0.13-0.219
	c-0.006-0.008-0.012-0.015-0.019-0.023c-0.042-0.087-0.094-0.17-0.153-0.251c-0.041-0.088-0.09-0.173-0.148-0.254
	c-0.038-0.083-0.084-0.164-0.138-0.241c-0.04-0.093-0.09-0.182-0.148-0.268c-0.037-0.087-0.082-0.17-0.134-0.25
	c-0.035-0.087-0.078-0.171-0.13-0.252c-0.034-0.09-0.077-0.176-0.128-0.259c-0.033-0.092-0.076-0.182-0.127-0.266
	c-0.031-0.09-0.071-0.176-0.118-0.258c-0.03-0.09-0.068-0.177-0.114-0.26c-0.028-0.091-0.064-0.178-0.109-0.262
	c-0.028-0.096-0.065-0.189-0.11-0.277c-0.026-0.092-0.06-0.181-0.102-0.266c-0.024-0.092-0.056-0.181-0.096-0.266
	c-0.023-0.093-0.054-0.183-0.093-0.269c-0.023-0.1-0.055-0.197-0.096-0.289c-0.02-0.092-0.048-0.181-0.084-0.266
	c-0.02-0.097-0.049-0.191-0.085-0.281c-0.019-0.098-0.045-0.193-0.081-0.284c-0.018-0.095-0.044-0.186-0.077-0.274
	c-0.018-0.099-0.042-0.195-0.075-0.286c-0.002-0.01-0.002-0.02-0.004-0.03c-0.016-0.086-0.04-0.168-0.068-0.248
	c-0.007-0.039-0.012-0.079-0.021-0.118c-0.013-0.055-0.029-0.108-0.046-0.161c-0.011-0.068-0.025-0.137-0.043-0.205
	c-0.007-0.028-0.018-0.054-0.026-0.081c-0.015-0.095-0.034-0.19-0.063-0.285c-0.001-0.003-0.002-0.006-0.003-0.009
	c-0.014-0.09-0.034-0.18-0.061-0.27c-0.014-0.1-0.036-0.199-0.064-0.298c-0.014-0.097-0.032-0.194-0.06-0.291
	c-0.013-0.09-0.031-0.18-0.055-0.269c-0.013-0.102-0.034-0.203-0.061-0.304c-0.013-0.103-0.031-0.206-0.059-0.308
	c-0.011-0.085-0.028-0.169-0.049-0.254c-0.012-0.098-0.031-0.196-0.055-0.294c-0.012-0.104-0.031-0.207-0.057-0.31
	c-0.013-0.103-0.03-0.205-0.055-0.306c-0.012-0.09-0.028-0.18-0.049-0.269c-0.011-0.092-0.027-0.184-0.047-0.275
	c-0.011-0.1-0.029-0.2-0.05-0.299c-0.012-0.105-0.03-0.21-0.053-0.314c-0.012-0.1-0.029-0.199-0.051-0.298
	c-0.012-0.095-0.028-0.189-0.048-0.283c-0.011-0.096-0.027-0.191-0.047-0.287c-0.011-0.097-0.026-0.194-0.046-0.29
	c-0.011-0.098-0.026-0.196-0.045-0.293c-0.011-0.099-0.025-0.198-0.045-0.296c-0.011-0.1-0.028-0.198-0.048-0.297
	c-0.011-0.098-0.028-0.195-0.047-0.291c-0.011-0.098-0.027-0.196-0.046-0.294c-0.011-0.099-0.027-0.198-0.046-0.296
	c-0.01-0.086-0.022-0.172-0.037-0.258c-0.011-0.11-0.027-0.219-0.048-0.328c-0.011-0.1-0.026-0.2-0.045-0.299
	c-0.011-0.101-0.026-0.201-0.045-0.301c-0.011-0.101-0.025-0.202-0.044-0.302c-0.105-0.913-0.506-1.799-1.206-2.499
	c-1.647-1.647-4.317-1.647-5.964,0C6.585,2.041,6.177,3.091,6.16,4.147C6.158,4.192,6.155,4.237,6.155,4.283
	C6.154,4.301,6.154,4.319,6.153,4.337c0,0.005,0,0.01,0,0.015c0,0.019-0.001,0.038-0.001,0.058C6.15,4.452,6.15,4.494,6.15,4.536
	C6.148,4.579,6.148,4.621,6.147,4.663C6.145,4.705,6.145,4.747,6.145,4.789C6.143,4.831,6.142,4.874,6.142,4.916
	C6.14,4.958,6.139,5,6.139,5.042C6.137,5.084,6.137,5.126,6.136,5.168C6.135,5.21,6.134,5.251,6.134,5.293
	C6.132,5.348,6.131,5.402,6.131,5.457c-0.002,0.039,0,0.077-0.001,0.116C6.127,5.616,6.127,5.66,6.126,5.704
	C6.124,5.748,6.124,5.792,6.123,5.836C6.12,5.88,6.121,5.924,6.12,5.968C6.117,6.012,6.117,6.056,6.116,6.1
	C6.114,6.144,6.114,6.188,6.113,6.232C6.111,6.275,6.11,6.319,6.109,6.363C6.107,6.407,6.106,6.451,6.106,6.494
	C6.104,6.538,6.103,6.582,6.102,6.626C6.1,6.669,6.099,6.713,6.099,6.757C6.097,6.8,6.096,6.844,6.095,6.888
	C6.094,6.932,6.092,6.975,6.092,7.019C6.09,7.062,6.088,7.106,6.088,7.15C6.086,7.193,6.084,7.237,6.084,7.28
	C6.083,7.324,6.08,7.367,6.08,7.411c-0.001,0.044-0.004,0.087-0.004,0.13c-0.001,0.043-0.004,0.087-0.004,0.13
	C6.072,7.7,6.069,7.729,6.069,7.758c-0.001,0.007,0,0.013-0.001,0.019c0,0.006-0.001,0.012,0,0.018
	c-0.002,0.03-0.001,0.06-0.003,0.09C6.062,7.929,6.063,7.973,6.061,8.017C6.058,8.061,6.058,8.105,6.057,8.149
	C6.053,8.194,6.053,8.238,6.052,8.282C6.049,8.326,6.048,8.37,6.047,8.414C6.044,8.458,6.044,8.502,6.043,8.546
	C6.04,8.59,6.038,8.633,6.038,8.677C6.035,8.721,6.033,8.765,6.033,8.809C6.03,8.853,6.028,8.896,6.028,8.94
	C6.025,8.984,6.023,9.027,6.023,9.071C6.02,9.115,6.018,9.158,6.017,9.202C6.015,9.246,6.012,9.289,6.012,9.333
	C6.01,9.376,6.007,9.419,6.007,9.463C6.004,9.506,6.001,9.549,6.001,9.592C5.997,9.635,5.997,9.679,5.995,9.723
	C5.991,9.767,5.991,9.811,5.989,9.855C5.985,9.899,5.984,9.943,5.983,9.987c-0.004,0.044-0.005,0.088-0.006,0.132
	c-0.003,0.044-0.005,0.088-0.006,0.131c-0.003,0.044-0.006,0.087-0.007,0.131c-0.003,0.044-0.006,0.087-0.007,0.131
	c-0.003,0.044-0.006,0.087-0.007,0.13c-0.003,0.043-0.006,0.086-0.007,0.13c-0.003,0.043-0.007,0.087-0.007,0.13
	c-0.001,0.01-0.001,0.02-0.002,0.03c-0.003,0.032-0.004,0.063-0.006,0.095c0,0.001,0,0.003,0,0.005
	c-0.001,0.011-0.001,0.022-0.001,0.033c-0.005,0.044-0.006,0.088-0.008,0.131c-0.004,0.044-0.006,0.087-0.008,0.131
	c-0.004,0.044-0.007,0.087-0.008,0.131c-0.004,0.043-0.007,0.087-0.008,0.13c-0.004,0.044-0.007,0.086-0.009,0.13
	c-0.004,0.043-0.008,0.086-0.009,0.129c-0.004,0.043-0.008,0.086-0.009,0.129c-0.002,0.018-0.003,0.037-0.004,0.055
	c-0.005,0.044-0.007,0.087-0.009,0.131c-0.005,0.043-0.007,0.087-0.009,0.13c-0.005,0.043-0.008,0.086-0.01,0.129
	c-0.005,0.043-0.008,0.086-0.01,0.128c-0.005,0.043-0.009,0.086-0.011,0.128c-0.004,0.042-0.009,0.085-0.011,0.127
	c-0.002,0.024-0.005,0.048-0.007,0.072c-0.006,0.043-0.008,0.086-0.011,0.129c-0.006,0.043-0.008,0.085-0.011,0.128
	c-0.005,0.042-0.009,0.085-0.012,0.127c-0.005,0.042-0.01,0.085-0.013,0.126c-0.005,0.042-0.011,0.084-0.013,0.126
	c-0.004,0.028-0.007,0.057-0.009,0.085c-0.006,0.042-0.009,0.084-0.013,0.127c-0.006,0.042-0.01,0.084-0.013,0.126
	c-0.006,0.042-0.011,0.083-0.014,0.125c-0.006,0.041-0.012,0.082-0.015,0.124c-0.006,0.041-0.013,0.082-0.016,0.122
	c-0.005,0.032-0.008,0.064-0.011,0.096c-0.001,0.009-0.004,0.018-0.006,0.027c-0.005,0.032-0.007,0.064-0.01,0.096
	c-0.003,0.02-0.008,0.039-0.011,0.059c-0.003,0.021-0.003,0.042-0.005,0.063c-0.005,0.03-0.012,0.06-0.015,0.091
	c-0.001,0.01-0.001,0.02-0.002,0.029c-0.006,0.034-0.012,0.069-0.016,0.104c-0.007,0.04-0.012,0.08-0.017,0.121
	c-0.008,0.039-0.013,0.079-0.018,0.119c-0.008,0.039-0.014,0.078-0.019,0.118c-0.008,0.038-0.015,0.077-0.02,0.116
	c-0.008,0.038-0.013,0.078-0.018,0.117c-0.008,0.038-0.014,0.077-0.02,0.116c-0.008,0.038-0.015,0.076-0.021,0.115
	c-0.009,0.041-0.018,0.081-0.024,0.123c-0.008,0.037-0.015,0.076-0.02,0.114c-0.009,0.037-0.016,0.074-0.022,0.112
	c-0.009,0.037-0.017,0.073-0.024,0.111c-0.011,0.042-0.019,0.086-0.026,0.13c-0.009,0.036-0.016,0.072-0.022,0.109
	C5.3,16.34,5.292,16.376,5.285,16.412c-0.012,0.042-0.022,0.086-0.03,0.129c-0.01,0.036-0.018,0.073-0.025,0.11
	c-0.01,0.035-0.019,0.07-0.026,0.105c-0.012,0.041-0.023,0.082-0.032,0.125c-0.011,0.037-0.02,0.076-0.028,0.114
	c-0.01,0.034-0.019,0.068-0.027,0.103c-0.013,0.04-0.024,0.081-0.034,0.122c-0.012,0.038-0.022,0.076-0.031,0.115
	c-0.011,0.034-0.021,0.067-0.029,0.101c-0.014,0.04-0.026,0.08-0.036,0.122c-0.013,0.037-0.024,0.076-0.034,0.115
	c-0.012,0.033-0.022,0.067-0.031,0.101c-0.015,0.04-0.027,0.08-0.039,0.12c-0.014,0.037-0.025,0.075-0.036,0.114
	c-0.012,0.033-0.024,0.067-0.034,0.101c-0.015,0.039-0.029,0.078-0.041,0.118c-0.015,0.038-0.027,0.076-0.039,0.115
	C4.723,18.376,4.711,18.41,4.7,18.444c-0.015,0.037-0.029,0.074-0.041,0.112c-0.016,0.039-0.03,0.078-0.043,0.118
	c-0.014,0.034-0.027,0.069-0.038,0.104c-0.015,0.034-0.029,0.068-0.041,0.104c-0.018,0.041-0.034,0.082-0.048,0.123
	c-0.015,0.035-0.028,0.07-0.041,0.106c-0.016,0.035-0.03,0.07-0.043,0.106c-0.017,0.037-0.034,0.074-0.047,0.113
	c-0.017,0.037-0.031,0.074-0.045,0.111c-0.016,0.035-0.031,0.071-0.045,0.108c-0.017,0.036-0.033,0.072-0.047,0.108
	c-0.017,0.036-0.034,0.072-0.048,0.109c-0.017,0.036-0.032,0.072-0.047,0.109c-0.018,0.036-0.034,0.073-0.048,0.11
	c-0.018,0.036-0.035,0.073-0.05,0.11c-0.016,0.032-0.032,0.065-0.046,0.098c0,0,0,0,0,0.001c-0.002,0.004-0.004,0.008-0.005,0.012
	c-0.016,0.032-0.03,0.065-0.044,0.098c-0.019,0.037-0.035,0.074-0.051,0.111c-0.019,0.037-0.037,0.074-0.053,0.112
	c-0.019,0.037-0.038,0.074-0.054,0.112c-0.014,0.028-0.028,0.056-0.041,0.084c-0.001,0.003-0.003,0.005-0.004,0.008
	C3.71,20.765,3.695,20.8,3.68,20.835c-0.006,0.011-0.013,0.022-0.019,0.033c-0.013,0.026-0.024,0.053-0.036,0.08
	c-0.01,0.019-0.022,0.038-0.032,0.058c-0.009,0.018-0.016,0.037-0.024,0.055c-0.015,0.027-0.031,0.054-0.044,0.082
	c-0.005,0.01-0.008,0.021-0.013,0.031c-0.019,0.035-0.038,0.07-0.055,0.106c-0.001,0.003-0.002,0.005-0.003,0.008
	c-0.012,0.023-0.024,0.047-0.036,0.071c-0.02,0.037-0.039,0.075-0.057,0.113c-0.021,0.037-0.04,0.075-0.058,0.113
	c-0.021,0.037-0.041,0.075-0.059,0.114c-0.021,0.038-0.041,0.075-0.06,0.114c-0.021,0.038-0.042,0.075-0.06,0.115
	c-0.011,0.019-0.021,0.039-0.031,0.059c-0.021,0.037-0.04,0.075-0.06,0.113c-0.022,0.037-0.041,0.075-0.06,0.114
	c-0.022,0.037-0.041,0.075-0.061,0.114c-0.022,0.037-0.042,0.075-0.062,0.114c-0.022,0.038-0.043,0.075-0.062,0.115
	c-0.022,0.038-0.043,0.076-0.063,0.115c-0.008,0.014-0.016,0.029-0.024,0.043c-0.004,0.007-0.007,0.013-0.011,0.02
	c-0.009,0.018-0.02,0.034-0.028,0.052C2.655,22.8,2.647,22.814,2.64,22.827c-0.022,0.037-0.042,0.076-0.062,0.114
	c-0.022,0.037-0.042,0.076-0.063,0.114c-0.022,0.037-0.043,0.075-0.063,0.114c-0.022,0.037-0.044,0.075-0.064,0.114
	c-0.022,0.037-0.044,0.075-0.064,0.114c-0.022,0.038-0.044,0.075-0.065,0.115c-0.022,0.038-0.045,0.076-0.065,0.115
	c-0.022,0.038-0.045,0.076-0.065,0.115c-0.004,0.006-0.007,0.013-0.011,0.019c-0.023,0.036-0.043,0.075-0.064,0.113
	c-0.023,0.037-0.043,0.075-0.065,0.113c-0.023,0.037-0.044,0.075-0.065,0.113c-0.023,0.037-0.044,0.075-0.065,0.114
	c-0.023,0.037-0.045,0.075-0.066,0.114c-0.023,0.037-0.045,0.075-0.066,0.114c-0.023,0.038-0.045,0.075-0.066,0.114
	c-0.023,0.038-0.045,0.076-0.066,0.115c-0.023,0.038-0.046,0.075-0.067,0.115c-0.022,0.038-0.046,0.075-0.067,0.115
	c-0.021,0.036-0.044,0.071-0.064,0.108c-0.022,0.035-0.041,0.071-0.062,0.107c-0.023,0.037-0.044,0.075-0.066,0.113
	c-0.023,0.037-0.045,0.075-0.066,0.113c-0.023,0.037-0.045,0.075-0.066,0.113c-0.023,0.037-0.045,0.075-0.067,0.113
	c-0.023,0.037-0.045,0.075-0.067,0.113c-0.023,0.037-0.045,0.075-0.067,0.113c-0.023,0.037-0.045,0.075-0.067,0.113
	c-0.023,0.037-0.046,0.075-0.067,0.113c-0.023,0.037-0.046,0.075-0.067,0.114c-0.023,0.037-0.046,0.075-0.067,0.114
	c-0.023,0.038-0.046,0.075-0.068,0.114c-0.023,0.038-0.047,0.075-0.068,0.114c-0.023,0.038-0.047,0.075-0.068,0.114
	C0.172,27.086,0,27.663,0,28.282c0,1.839,1.491,3.33,3.33,3.33c1.839,0,3.331-1.491,3.331-3.33c0-0.007-0.001-0.014-0.001-0.021
	c0.001-0.029,0.005-0.057,0.005-0.086c0-0.009-0.001-0.017-0.001-0.025c0.001-0.027,0.005-0.054,0.005-0.082
	c0-0.01-0.001-0.02-0.001-0.03c0.001-0.026,0.005-0.051,0.005-0.077c0-0.012-0.001-0.023-0.001-0.035
	c0.001-0.024,0.005-0.048,0.005-0.072c0-0.014-0.001-0.027-0.001-0.04c0.001-0.022,0.004-0.044,0.005-0.067
	c0-0.015-0.001-0.03-0.001-0.045c0.001-0.021,0.004-0.041,0.005-0.062c0-0.017-0.001-0.034-0.001-0.05
	c0.001-0.019,0.004-0.037,0.005-0.057c0.001-0.019-0.001-0.037-0.001-0.056c0.001-0.017,0.004-0.034,0.005-0.051
	c0.001-0.021-0.001-0.041-0.001-0.061c0.001-0.016,0.004-0.03,0.005-0.046c0.001-0.023-0.001-0.044,0-0.067
	c0.001-0.014,0.003-0.027,0.004-0.04c0.001-0.024,0-0.048,0-0.072c0.001-0.012,0.003-0.023,0.004-0.035c0.001-0.026,0-0.052,0-0.078
	c0.001-0.01,0.003-0.019,0.003-0.029c0.002-0.028,0-0.055,0.001-0.083c0.001-0.008,0.002-0.015,0.003-0.023
	c0.002-0.03,0-0.06,0.002-0.089c0-0.006,0.002-0.012,0.002-0.018c0.002-0.032,0.001-0.063,0.002-0.095
	c0-0.004,0.001-0.007,0.002-0.012c0.003-0.034,0.001-0.067,0.003-0.101c0-0.002,0.001-0.004,0.001-0.006
	c0.004-0.04,0.002-0.079,0.004-0.119c0.006-0.071,0.008-0.14,0.009-0.21c0.003-0.057,0.008-0.114,0.008-0.17
	c0.002-0.037,0.005-0.074,0.005-0.111c0.002-0.037,0.005-0.074,0.005-0.11c0.002-0.037,0.005-0.074,0.005-0.111
	c0.002-0.037,0.005-0.074,0.005-0.111c0.002-0.037,0.005-0.074,0.006-0.111c0.002-0.037,0.005-0.074,0.006-0.111
	c0.003-0.037,0.005-0.074,0.006-0.112c0.003-0.037,0.005-0.074,0.006-0.111c0.003-0.037,0.005-0.075,0.006-0.112
	c0.003-0.037,0.005-0.075,0.006-0.112c0.004-0.038,0.005-0.075,0.006-0.112c0.004-0.037,0.004-0.075,0.006-0.112
	c0.004-0.037,0.004-0.075,0.007-0.112c0.005-0.05,0.007-0.1,0.009-0.149c0.006-0.065,0.012-0.13,0.012-0.194
	c0.003-0.037,0.007-0.073,0.007-0.11c0.003-0.037,0.007-0.074,0.007-0.11c0.003-0.037,0.006-0.073,0.007-0.11
	c0.003-0.037,0.007-0.074,0.008-0.11c0.003-0.037,0.007-0.074,0.008-0.11c0.004-0.037,0.006-0.074,0.008-0.111
	c0.004-0.037,0.007-0.074,0.008-0.111c0.004-0.037,0.007-0.074,0.009-0.111c0.004-0.037,0.007-0.074,0.009-0.111
	c0.005-0.037,0.007-0.074,0.009-0.111c0.008-0.059,0.012-0.118,0.015-0.176c0.005-0.045,0.01-0.089,0.012-0.133
	c0.004-0.037,0.008-0.073,0.01-0.11c0.004-0.037,0.008-0.073,0.01-0.11c0.004-0.037,0.008-0.073,0.01-0.11
	c0.005-0.037,0.008-0.074,0.011-0.11c0.005-0.037,0.008-0.074,0.011-0.111c0.006-0.037,0.009-0.074,0.012-0.111
	c0.006-0.037,0.009-0.074,0.012-0.111c0.008-0.052,0.013-0.104,0.017-0.155c0.006-0.044,0.012-0.089,0.015-0.133
	c0.005-0.037,0.01-0.073,0.013-0.109c0.005-0.037,0.01-0.073,0.013-0.11c0.006-0.037,0.01-0.073,0.014-0.11
	c0.006-0.037,0.011-0.073,0.014-0.11c0.006-0.037,0.011-0.073,0.015-0.11c0.007-0.037,0.011-0.074,0.015-0.111
	c0.011-0.054,0.018-0.109,0.023-0.164c0.006-0.037,0.012-0.073,0.016-0.109c0.007-0.036,0.013-0.073,0.016-0.109
	c0.007-0.037,0.013-0.073,0.017-0.11c0.007-0.036,0.013-0.073,0.018-0.109c0.008-0.036,0.013-0.073,0.019-0.11
	c0.01-0.043,0.017-0.087,0.023-0.131c0.01-0.044,0.018-0.088,0.023-0.133c0.008-0.036,0.015-0.072,0.02-0.109
	c0.008-0.036,0.015-0.072,0.021-0.109c0.008-0.036,0.015-0.072,0.021-0.109c0.009-0.036,0.016-0.072,0.022-0.109
	c0.011-0.044,0.02-0.088,0.028-0.132c0.01-0.041,0.019-0.082,0.026-0.124c0.009-0.036,0.017-0.072,0.024-0.108
	c0.01-0.036,0.018-0.072,0.025-0.108c0.01-0.036,0.018-0.072,0.026-0.108c0.01-0.036,0.019-0.072,0.026-0.108
	c0.014-0.047,0.026-0.095,0.036-0.143c0.01-0.035,0.02-0.071,0.027-0.108c0.011-0.035,0.02-0.071,0.028-0.107
	c0.011-0.035,0.021-0.071,0.029-0.107c0.011-0.035,0.021-0.071,0.03-0.107c0.015-0.045,0.028-0.09,0.039-0.135
	c0.012-0.037,0.023-0.074,0.033-0.112c0.012-0.035,0.022-0.071,0.032-0.106c0.012-0.035,0.023-0.07,0.033-0.106
	c0.013-0.035,0.024-0.07,0.034-0.106c0.014-0.036,0.025-0.073,0.036-0.111c0.017-0.044,0.032-0.089,0.044-0.134
	c0.013-0.035,0.025-0.07,0.035-0.105c0.013-0.034,0.026-0.069,0.036-0.105c0.014-0.034,0.026-0.069,0.037-0.104
	c0.014-0.034,0.026-0.069,0.038-0.104c0.02-0.046,0.037-0.093,0.052-0.141c0.014-0.034,0.027-0.069,0.039-0.104
	c0.014-0.034,0.028-0.068,0.039-0.103c0.015-0.034,0.028-0.068,0.04-0.103c0.015-0.034,0.028-0.068,0.041-0.103
	c0.015-0.034,0.029-0.068,0.041-0.102c0.022-0.047,0.042-0.095,0.059-0.144c0.015-0.034,0.03-0.068,0.042-0.103
	c0.015-0.034,0.03-0.067,0.043-0.102c0.015-0.033,0.03-0.067,0.043-0.102c0.016-0.033,0.03-0.067,0.044-0.101
	c0.016-0.033,0.03-0.067,0.045-0.101c0.02-0.04,0.038-0.081,0.055-0.123c0.021-0.042,0.04-0.084,0.058-0.128
	c0.016-0.033,0.032-0.067,0.046-0.101c0.016-0.033,0.032-0.066,0.046-0.101c0.017-0.033,0.032-0.066,0.047-0.1
	c0.017-0.033,0.032-0.066,0.047-0.1c0.017-0.032,0.032-0.066,0.047-0.099c0.017-0.032,0.032-0.066,0.048-0.099
	c0.029-0.052,0.054-0.105,0.078-0.16c0.017-0.033,0.034-0.066,0.049-0.1c0.017-0.033,0.034-0.066,0.049-0.1
	c0.017-0.033,0.034-0.065,0.049-0.099c0.018-0.032,0.034-0.065,0.05-0.099c0.018-0.032,0.034-0.065,0.05-0.098
	c0.018-0.032,0.034-0.065,0.05-0.098c0.018-0.032,0.034-0.065,0.05-0.098c0.021-0.036,0.039-0.074,0.058-0.112
	c0.03-0.052,0.059-0.106,0.085-0.162c0.018-0.033,0.036-0.065,0.052-0.099c0.018-0.033,0.036-0.065,0.052-0.099
	c0.018-0.032,0.036-0.065,0.052-0.098c0.018-0.032,0.036-0.064,0.052-0.098c0.018-0.032,0.036-0.064,0.052-0.098
	c0.018-0.032,0.036-0.065,0.052-0.097c0.019-0.032,0.035-0.064,0.052-0.097c0.019-0.031,0.035-0.064,0.052-0.097
	c0.019-0.031,0.035-0.064,0.053-0.097c0.022-0.036,0.041-0.075,0.062-0.113c0.035-0.058,0.069-0.118,0.099-0.18
	c0.018-0.032,0.038-0.063,0.054-0.096c0.001-0.003,0.002-0.005,0.003-0.007c0.015-0.028,0.033-0.054,0.048-0.083
	c0.003-0.005,0.004-0.01,0.007-0.015c0.014-0.025,0.03-0.049,0.044-0.075c0.004-0.008,0.007-0.015,0.011-0.023
	c0.013-0.023,0.028-0.044,0.041-0.067c0.005-0.01,0.009-0.02,0.014-0.03c0.012-0.02,0.025-0.039,0.037-0.06
	c0.007-0.012,0.012-0.025,0.018-0.038c0.011-0.018,0.023-0.034,0.033-0.052c0.008-0.015,0.014-0.03,0.022-0.045
	c0.009-0.016,0.02-0.03,0.029-0.045c0.009-0.017,0.016-0.035,0.026-0.052c0.008-0.013,0.017-0.025,0.025-0.039
	c0.011-0.019,0.02-0.039,0.03-0.058c0.007-0.011,0.014-0.021,0.021-0.032c0.013-0.021,0.022-0.043,0.034-0.065
	c0.005-0.009,0.012-0.017,0.017-0.026c0.014-0.023,0.025-0.047,0.038-0.071c0.004-0.007,0.009-0.013,0.013-0.019
	c0.015-0.025,0.027-0.051,0.042-0.077c0.003-0.005,0.006-0.009,0.009-0.013c0.013-0.02,0.023-0.041,0.034-0.062
	c0.002,0.003,0.004,0.005,0.006,0.008c0.055,0.083,0.114,0.162,0.176,0.236c0.055,0.084,0.113,0.164,0.176,0.239
	c0.053,0.082,0.11,0.161,0.172,0.235c0.054,0.084,0.113,0.162,0.175,0.237c0.053,0.085,0.112,0.164,0.175,0.239
	c0.053,0.085,0.111,0.166,0.173,0.243c0.053,0.086,0.109,0.169,0.172,0.245c0.048,0.079,0.101,0.155,0.158,0.226
	c0.05,0.086,0.108,0.166,0.17,0.243c0.051,0.088,0.107,0.171,0.169,0.249c0.049,0.086,0.103,0.168,0.163,0.244
	c0.045,0.081,0.096,0.158,0.152,0.23c0.047,0.09,0.103,0.173,0.164,0.252c0.047,0.089,0.099,0.174,0.159,0.253
	c0.043,0.083,0.091,0.161,0.146,0.235c0.044,0.09,0.096,0.174,0.154,0.254c0.042,0.089,0.092,0.174,0.149,0.253
	c0.039,0.084,0.085,0.164,0.137,0.24c0.041,0.094,0.09,0.183,0.148,0.267c0.037,0.086,0.081,0.168,0.132,0.246
	c0.036,0.09,0.081,0.176,0.133,0.258c0.035,0.091,0.078,0.178,0.129,0.26c0.032,0.088,0.072,0.172,0.12,0.252
	c0.032,0.095,0.075,0.186,0.125,0.273c0.029,0.088,0.066,0.173,0.111,0.254c0.029,0.096,0.068,0.189,0.116,0.278
	c0.026,0.089,0.06,0.175,0.103,0.257c0.026,0.094,0.06,0.186,0.104,0.274c0.024,0.092,0.056,0.183,0.098,0.27
	c0.022,0.091,0.053,0.179,0.091,0.265c0.022,0.098,0.054,0.194,0.095,0.288c0.02,0.09,0.048,0.178,0.083,0.264
	c0.019,0.096,0.048,0.19,0.085,0.282c0.019,0.096,0.045,0.191,0.081,0.284c0.017,0.09,0.041,0.179,0.073,0.266
	c0.017,0.098,0.044,0.194,0.078,0.289c0.017,0.098,0.04,0.196,0.073,0.292c0.015,0.09,0.037,0.179,0.066,0.267
	c0.015,0.096,0.039,0.191,0.068,0.285c0.015,0.098,0.037,0.196,0.067,0.293c0.015,0.097,0.034,0.195,0.063,0.291
	c0.013,0.09,0.032,0.179,0.058,0.269c0.013,0.098,0.036,0.196,0.063,0.293c0.013,0.098,0.034,0.195,0.06,0.292
	c0.013,0.097,0.031,0.194,0.057,0.291c0.013,0.096,0.03,0.193,0.055,0.289c0.011,0.088,0.027,0.177,0.048,0.265
	c0.002,0.008,0.005,0.016,0.007,0.025c0.01,0.075,0.021,0.15,0.038,0.225c0.005,0.022,0.013,0.044,0.018,0.066
	c0.008,0.061,0.015,0.122,0.027,0.184c0.007,0.037,0.018,0.071,0.027,0.107c0.006,0.048,0.01,0.095,0.018,0.143
	c0.009,0.05,0.022,0.097,0.034,0.146c0.004,0.035,0.006,0.069,0.011,0.104c0.01,0.062,0.025,0.123,0.039,0.183
	c0.003,0.022,0.003,0.045,0.006,0.067c0.011,0.075,0.026,0.148,0.043,0.22c0.001,0.01,0.001,0.02,0.002,0.03
	c0.012,0.099,0.03,0.195,0.052,0.29c0.012,0.098,0.029,0.196,0.05,0.291c0.012,0.098,0.028,0.195,0.049,0.29
	c0.012,0.098,0.027,0.194,0.048,0.289c0.012,0.098,0.027,0.193,0.047,0.288c0.011,0.097,0.026,0.193,0.046,0.287
	c0.011,0.097,0.026,0.192,0.045,0.286c0.01,0.091,0.025,0.181,0.042,0.269c0.011,0.108,0.027,0.215,0.048,0.32
	c0.011,0.096,0.027,0.19,0.045,0.283c0.195,1.834,1.746,3.262,3.632,3.262c1.859,0,3.393-1.39,3.622-3.187
	c0.007-0.043,0.013-0.086,0.019-0.129c0.007-0.042,0.014-0.085,0.019-0.128c0.007-0.042,0.014-0.084,0.019-0.127
	c0.006-0.038,0.012-0.077,0.017-0.116c0.006-0.034,0.008-0.069,0.013-0.104c0.008-0.047,0.015-0.095,0.022-0.143
	c0.008-0.047,0.016-0.094,0.022-0.142c0.008-0.047,0.016-0.094,0.022-0.141c0.008-0.047,0.017-0.093,0.022-0.141
	c0.007-0.044,0.017-0.086,0.022-0.13c0.009-0.044,0.014-0.089,0.021-0.133c0.01-0.047,0.016-0.095,0.024-0.143
	c0.01-0.047,0.017-0.094,0.024-0.142c0.009-0.047,0.017-0.094,0.024-0.141c0.009-0.046,0.018-0.093,0.025-0.14
	c0.009-0.046,0.018-0.092,0.025-0.139c0.001-0.006,0.002-0.012,0.004-0.019c0.003-0.014,0.005-0.028,0.008-0.042
	c0.004-0.026,0.01-0.051,0.014-0.077c0.001-0.007,0.003-0.015,0.004-0.022c0.011-0.046,0.018-0.093,0.026-0.141
	c0.01-0.046,0.019-0.092,0.026-0.139c0.01-0.046,0.019-0.092,0.027-0.138c0.01-0.045,0.02-0.091,0.028-0.137
	c0.004-0.016,0.007-0.033,0.01-0.049c0.004-0.015,0.007-0.031,0.01-0.046c0.002-0.014,0.006-0.027,0.008-0.04
	c0.004-0.017,0.007-0.034,0.01-0.052c0.011-0.045,0.02-0.09,0.028-0.136c0.011-0.045,0.02-0.09,0.029-0.135
	c0.011-0.044,0.022-0.088,0.03-0.133c0.006-0.024,0.011-0.047,0.016-0.071c0.012-0.044,0.021-0.089,0.03-0.133
	c0.012-0.043,0.022-0.087,0.031-0.131c0.011-0.043,0.023-0.085,0.032-0.129c0.008-0.029,0.016-0.058,0.022-0.088
	c0.012-0.042,0.022-0.085,0.031-0.128c0.012-0.041,0.023-0.083,0.033-0.125c0.012-0.041,0.024-0.081,0.034-0.122
	c0.01-0.033,0.019-0.067,0.027-0.101c0.013-0.04,0.023-0.08,0.034-0.12c0.013-0.039,0.025-0.078,0.035-0.117
	c0.012-0.036,0.023-0.073,0.033-0.11c0.013-0.038,0.024-0.076,0.035-0.115c0.013-0.037,0.026-0.073,0.037-0.11
	c0.014-0.039,0.026-0.078,0.038-0.117c0.014-0.036,0.026-0.071,0.037-0.108c0.015-0.039,0.031-0.079,0.044-0.119
	c0.014-0.035,0.025-0.072,0.037-0.108c0.014-0.033,0.028-0.067,0.04-0.101c0.018-0.041,0.033-0.083,0.048-0.125
	c0.014-0.032,0.027-0.065,0.04-0.098c0.019-0.042,0.038-0.083,0.054-0.126c0.015-0.032,0.027-0.064,0.04-0.096
	c0.018-0.037,0.036-0.074,0.051-0.112c0.018-0.035,0.033-0.071,0.048-0.107c0.017-0.033,0.034-0.065,0.049-0.099
	c0.021-0.038,0.038-0.077,0.055-0.116c0.016-0.029,0.032-0.058,0.046-0.088c0.023-0.039,0.042-0.079,0.062-0.12
	c0.01-0.016,0.02-0.032,0.03-0.049c0.007-0.012,0.011-0.025,0.018-0.037c0.023-0.038,0.045-0.077,0.066-0.118
	c0.017-0.028,0.033-0.056,0.049-0.085c0.025-0.039,0.05-0.078,0.072-0.119c0.018-0.027,0.034-0.056,0.051-0.085
	c0.024-0.035,0.049-0.071,0.07-0.108c0.021-0.03,0.04-0.062,0.059-0.093c0.023-0.032,0.046-0.063,0.066-0.097
	c0.024-0.033,0.047-0.067,0.069-0.102c0.021-0.027,0.041-0.055,0.06-0.084c0.028-0.036,0.054-0.073,0.079-0.111
	c0.022-0.028,0.043-0.056,0.063-0.085c0.028-0.034,0.056-0.069,0.081-0.105c0.023-0.028,0.044-0.057,0.065-0.087
	c0.024-0.029,0.049-0.057,0.071-0.087c0.028-0.032,0.053-0.066,0.079-0.1c0.025-0.029,0.05-0.058,0.073-0.089
	c0.027-0.03,0.054-0.06,0.079-0.092c0.026-0.029,0.051-0.06,0.075-0.091c0.027-0.03,0.054-0.06,0.08-0.091
	c0.026-0.027,0.051-0.055,0.075-0.083c0.029-0.03,0.055-0.061,0.082-0.093c0.029-0.03,0.058-0.061,0.085-0.093
	c0.024-0.024,0.047-0.048,0.07-0.073c0.03-0.03,0.058-0.062,0.086-0.094c0.031-0.031,0.061-0.062,0.09-0.095
	c0.032-0.031,0.063-0.062,0.093-0.095c0.02-0.02,0.041-0.041,0.06-0.061c0.033-0.031,0.063-0.063,0.093-0.096
	c0.033-0.031,0.064-0.063,0.095-0.096c0.033-0.032,0.067-0.063,0.097-0.096c0.016-0.016,0.033-0.031,0.049-0.047
	c0.017-0.015,0.032-0.031,0.048-0.047c0.001-0.001,0.002-0.002,0.003-0.003c0.016-0.015,0.031-0.031,0.046-0.046
	c0.034-0.031,0.067-0.063,0.099-0.096c0.034-0.031,0.068-0.063,0.101-0.096c0.035-0.032,0.07-0.063,0.103-0.097
	c0.01-0.01,0.021-0.019,0.031-0.029c0.014-0.012,0.027-0.025,0.041-0.037c0.01-0.01,0.022-0.02,0.032-0.03
	c0.01-0.009,0.019-0.019,0.029-0.028c0.036-0.031,0.069-0.063,0.103-0.096c0.036-0.031,0.07-0.063,0.104-0.096
	c0.036-0.031,0.071-0.063,0.105-0.096c0.036-0.032,0.072-0.063,0.106-0.097c0.002-0.002,0.005-0.004,0.007-0.007
	c0-0.001,0.001-0.001,0.002-0.002c0.033-0.029,0.067-0.058,0.098-0.088c0.002-0.002,0.003-0.003,0.005-0.005
	c0.037-0.03,0.071-0.063,0.105-0.095c0.037-0.03,0.071-0.063,0.106-0.095c0.037-0.031,0.072-0.063,0.107-0.095
	c0.037-0.031,0.073-0.063,0.108-0.095c0.037-0.031,0.073-0.063,0.108-0.095c0.037-0.032,0.074-0.062,0.109-0.095
	c0.034-0.029,0.069-0.056,0.101-0.087c0.03-0.024,0.057-0.051,0.086-0.076c0.034-0.027,0.066-0.057,0.099-0.085
	c0.004,0.005,0.008,0.01,0.013,0.015c0.029,0.031,0.057,0.065,0.087,0.096c0.029,0.032,0.057,0.065,0.087,0.096
	c0.029,0.032,0.057,0.065,0.087,0.096c0.029,0.032,0.057,0.065,0.087,0.096c0.029,0.032,0.057,0.065,0.087,0.096
	c0.029,0.032,0.057,0.065,0.087,0.096c0.029,0.033,0.057,0.065,0.087,0.097c0.029,0.033,0.057,0.065,0.087,0.097
	c0.029,0.033,0.058,0.065,0.087,0.097c0.029,0.033,0.057,0.065,0.087,0.097c0.029,0.033,0.058,0.065,0.087,0.097
	c0.028,0.033,0.058,0.066,0.087,0.097c0.028,0.034,0.058,0.065,0.087,0.097c0.028,0.034,0.058,0.066,0.087,0.098
	c0.028,0.034,0.058,0.066,0.087,0.098c0.028,0.034,0.058,0.066,0.087,0.098c0.028,0.034,0.058,0.066,0.088,0.098
	c0.028,0.034,0.058,0.066,0.088,0.099c0.039,0.049,0.082,0.094,0.124,0.14c0.048,0.058,0.096,0.115,0.148,0.168
	c0.028,0.032,0.055,0.066,0.085,0.096c0.028,0.033,0.055,0.066,0.085,0.097c0.028,0.033,0.055,0.066,0.085,0.097
	c0.028,0.033,0.056,0.066,0.085,0.097c0.028,0.033,0.056,0.066,0.085,0.097c0.028,0.033,0.056,0.066,0.085,0.098
	c0.028,0.033,0.056,0.066,0.085,0.098c0.027,0.034,0.056,0.066,0.085,0.098c0.027,0.034,0.056,0.067,0.085,0.099
	c0.027,0.034,0.056,0.067,0.085,0.099c0.027,0.035,0.056,0.067,0.085,0.1c0.034,0.044,0.071,0.085,0.108,0.126
	c0.039,0.05,0.079,0.098,0.122,0.144c0.027,0.033,0.054,0.067,0.083,0.098c0.027,0.033,0.054,0.067,0.083,0.098
	c0.027,0.034,0.054,0.067,0.083,0.099c0.027,0.034,0.054,0.067,0.083,0.099c0.027,0.034,0.054,0.068,0.083,0.1
	c0.026,0.035,0.054,0.068,0.082,0.101c0.026,0.035,0.054,0.068,0.082,0.101c0.03,0.041,0.063,0.08,0.096,0.118
	c0.034,0.046,0.069,0.09,0.106,0.132c0.026,0.034,0.052,0.068,0.08,0.1c0.026,0.035,0.052,0.069,0.08,0.101
	c0.026,0.035,0.052,0.069,0.08,0.102c0.025,0.035,0.052,0.069,0.08,0.102c0.025,0.036,0.052,0.07,0.08,0.104
	c0.031,0.045,0.064,0.089,0.099,0.13c0.026,0.037,0.054,0.074,0.083,0.109c0.025,0.035,0.05,0.07,0.077,0.103
	c0.024,0.036,0.05,0.071,0.077,0.104c0.024,0.036,0.05,0.071,0.077,0.105c0.024,0.037,0.049,0.072,0.076,0.106
	c0.028,0.045,0.059,0.087,0.091,0.129c0.023,0.037,0.048,0.072,0.074,0.106c0.023,0.037,0.047,0.073,0.074,0.108
	c0.022,0.037,0.047,0.074,0.072,0.108c0.025,0.043,0.052,0.086,0.082,0.126c0.022,0.037,0.045,0.074,0.071,0.108
	c0.022,0.038,0.045,0.075,0.07,0.11c0.021,0.038,0.044,0.075,0.068,0.111c0.023,0.043,0.047,0.085,0.074,0.125
	c0.02,0.038,0.042,0.075,0.066,0.112c0.02,0.039,0.041,0.077,0.065,0.113c0.019,0.039,0.04,0.077,0.063,0.114
	c0.02,0.043,0.042,0.085,0.067,0.125c0.018,0.04,0.039,0.078,0.061,0.115c0.018,0.04,0.037,0.079,0.059,0.116
	c0.017,0.04,0.035,0.079,0.057,0.118c0.017,0.043,0.038,0.085,0.061,0.127c0.016,0.04,0.034,0.08,0.054,0.118
	c0.015,0.041,0.032,0.08,0.052,0.119c0.016,0.044,0.034,0.088,0.055,0.13c0.014,0.041,0.031,0.081,0.05,0.12
	c0.014,0.041,0.029,0.081,0.047,0.121c0.013,0.041,0.028,0.082,0.045,0.122c0.014,0.045,0.03,0.09,0.049,0.134
	c0.012,0.041,0.026,0.082,0.043,0.123c0.011,0.042,0.025,0.083,0.041,0.123c0.012,0.046,0.026,0.092,0.043,0.137
	c0.011,0.043,0.024,0.085,0.04,0.126c0.01,0.042,0.023,0.083,0.037,0.124c0.01,0.042,0.021,0.083,0.035,0.124
	c0.009,0.044,0.021,0.087,0.035,0.131c0.01,0.048,0.023,0.095,0.038,0.141c0.009,0.042,0.02,0.084,0.033,0.126
	c0.008,0.042,0.019,0.084,0.031,0.125c0.008,0.042,0.018,0.084,0.03,0.125c0.009,0.053,0.021,0.105,0.036,0.158
	c0.008,0.042,0.017,0.085,0.029,0.127c0.007,0.042,0.016,0.084,0.028,0.127c0.007,0.042,0.016,0.084,0.026,0.127
	c0.007,0.042,0.015,0.084,0.025,0.126c0.006,0.042,0.015,0.084,0.024,0.126c0.008,0.057,0.018,0.114,0.032,0.171
	c0,0.002,0.001,0.003,0.001,0.004c0.005,0.035,0.01,0.07,0.018,0.106c0.002,0.008,0.004,0.015,0.006,0.022
	c0.004,0.029,0.007,0.058,0.013,0.088c0.003,0.014,0.007,0.027,0.01,0.04c0.003,0.023,0.005,0.047,0.009,0.07
	c0.004,0.02,0.009,0.038,0.013,0.057c0.002,0.018,0.003,0.035,0.006,0.053c0.004,0.025,0.011,0.049,0.016,0.074
	c0.001,0.012,0.002,0.024,0.003,0.036c0.004,0.031,0.012,0.06,0.018,0.091c0.001,0.007,0.001,0.013,0.001,0.019
	c0.005,0.036,0.012,0.071,0.019,0.107c0,0.001,0,0.002,0,0.003c0.007,0.066,0.018,0.131,0.032,0.195
	c0.006,0.043,0.012,0.087,0.02,0.129c0.006,0.043,0.011,0.086,0.02,0.129c0.005,0.043,0.011,0.086,0.019,0.128
	c0.005,0.043,0.011,0.086,0.019,0.128c0.005,0.043,0.011,0.085,0.019,0.127c0.004,0.043,0.011,0.085,0.018,0.128
	c0.004,0.043,0.011,0.085,0.018,0.127c0.106,1.138,1.063,2.029,2.229,2.029c1.237,0,2.24-1.003,2.24-2.24
	C42,28.797,41.781,28.273,41.424,27.876"/>
</svg>
